<?xml version="1.0" standalone="no"?>
 <!DOCTYPE svg PUBLIC "-//W3C//DTD SVG 1.1//EN" 
 "http://www.w3.org/Graphics/SVG/1.1/DTD/svg11.dtd"> 
<svg xmlns="http://www.w3.org/2000/svg" version="1.1" 
    width="23.7541cm" height="13.2791cm" viewBox="0 0 93520 52280 ">
<title>SVG Picture created as ada-brd.svg date 2015/09/22 13:48:01 </title>
  <desc>Picture generated by PCBNEW </desc>
<g style="fill:#000000; fill-opacity:1;stroke:#000000; stroke-opacity:1;
stroke-linecap:round; stroke-linejoin:round; "
 transform="translate(0 0) scale(1 1)">
</g>
<g style="fill:#000000; fill-opacity:0.0; 
stroke:#000000; stroke-width:620; stroke-opacity:1; 
stroke-linecap:round; stroke-linejoin:round;">
<path d="M74147 49152
L74427 49152
" />
<path d="M74147 48152
L74427 48152
" />
<path d="M74147 47152
L74427 47152
" />
<path d="M74147 46152
L74427 46152
" />
<path d="M74147 45152
L74427 45152
" />
<path d="M74147 44152
L74427 44152
" />
<path d="M74147 43152
L74427 43152
" />
<path d="M74147 42152
L74427 42152
" />
<path d="M74147 41152
L74427 41152
" />
<path d="M74147 40152
L74427 40152
" />
<path d="M74147 39152
L74427 39152
" />
<path d="M74147 38152
L74427 38152
" />
<path d="M74147 37152
L74427 37152
" />
</g>
<g style="fill:#000000; fill-opacity:0.0; 
stroke:#000000; stroke-width:78.7402; stroke-opacity:1; 
stroke-linecap:round; stroke-linejoin:round;">
</g>
<g style="fill:#000000; fill-opacity:1.0; 
stroke:#000000; stroke-width:78.7402; stroke-opacity:1; 
stroke-linecap:round; stroke-linejoin:round;">
<polyline style="fill-rule:evenodd;"
points="74697,50423
73876,50423
73876,49882
74697,49882
74697,50423
" /> 
</g>
<g style="fill:#000000; fill-opacity:1.0; 
stroke:#000000; stroke-width:620; stroke-opacity:1; 
stroke-linecap:round; stroke-linejoin:round;">
</g>
<g style="fill:#000000; fill-opacity:0.0; 
stroke:#000000; stroke-width:620; stroke-opacity:1; 
stroke-linecap:round; stroke-linejoin:round;">
<path d="M71147 37152
L71427 37152
" />
<path d="M71147 38152
L71427 38152
" />
<path d="M71147 39152
L71427 39152
" />
<path d="M71147 40152
L71427 40152
" />
<path d="M71147 41152
L71427 41152
" />
<path d="M71147 42152
L71427 42152
" />
<path d="M71147 43152
L71427 43152
" />
<path d="M71147 44152
L71427 44152
" />
<path d="M71147 45152
L71427 45152
" />
<path d="M71147 46152
L71427 46152
" />
<path d="M71147 47152
L71427 47152
" />
<path d="M71147 48152
L71427 48152
" />
<path d="M71147 49152
L71427 49152
" />
<path d="M71147 50152
L71427 50152
" />
</g>
<g style="fill:#000000; fill-opacity:0.0; 
stroke:#000000; stroke-width:78.7402; stroke-opacity:1; 
stroke-linecap:round; stroke-linejoin:round;">
</g>
<g style="fill:#000000; fill-opacity:1.0; 
stroke:#000000; stroke-width:78.7402; stroke-opacity:1; 
stroke-linecap:round; stroke-linejoin:round;">
<polyline style="fill-rule:evenodd;"
points="3672,2137
3672,1703
4106,1703
4106,2137
3672,2137
" /> 
<circle cx="4873.78" cy="1920.53" r="216.535" /> 
<polyline style="fill-rule:evenodd;"
points="3672,2137
3672,1703
4106,1703
4106,2137
3672,2137
" /> 
<circle cx="4873.78" cy="1920.53" r="216.535" /> 
<circle cx="65576.1" cy="50159.1" r="260.63" /> 
<circle cx="59376.1" cy="51359.1" r="260.63" /> 
<circle cx="67876.1" cy="38659.1" r="260.63" /> 
<circle cx="56376.1" cy="36359.1" r="260.63" /> 
<circle cx="89198.2" cy="50159.1" r="260.63" /> 
<circle cx="82998.2" cy="51359.1" r="260.63" /> 
<circle cx="91498.2" cy="38659.1" r="260.63" /> 
<circle cx="79998.2" cy="36359.1" r="260.63" /> 
<circle cx="1468.53" cy="1920.53" r="452.63" /> 
<circle cx="6310.53" cy="1920.53" r="452.63" /> 
</g>
<g style="fill:#FFFFFF; fill-opacity:1.0; 
stroke:#FFFFFF; stroke-width:78.7402; stroke-opacity:1; 
stroke-linecap:round; stroke-linejoin:round;">
<circle cx="74287.2" cy="49152.8" r="120.63" /> 
<circle cx="74287.2" cy="48152.8" r="120.63" /> 
<circle cx="74287.2" cy="47152.8" r="120.63" /> 
<circle cx="74287.2" cy="46152.8" r="120.63" /> 
<circle cx="74287.2" cy="45152.8" r="120.63" /> 
<circle cx="74287.2" cy="44152.8" r="120.63" /> 
<circle cx="74287.2" cy="43152.8" r="120.63" /> 
<circle cx="74287.2" cy="42152.8" r="120.63" /> 
<circle cx="74287.2" cy="41152.8" r="120.63" /> 
<circle cx="74287.2" cy="40152.8" r="120.63" /> 
<circle cx="74287.2" cy="39152.8" r="120.63" /> 
<circle cx="74287.2" cy="38152.8" r="120.63" /> 
<circle cx="74287.2" cy="37152.8" r="120.63" /> 
<circle cx="74287.2" cy="50152.8" r="120.63" /> 
<circle cx="71287.2" cy="37152.8" r="120.63" /> 
<circle cx="71287.2" cy="38152.8" r="120.63" /> 
<circle cx="71287.2" cy="39152.8" r="120.63" /> 
<circle cx="71287.2" cy="40152.8" r="120.63" /> 
<circle cx="71287.2" cy="41152.8" r="120.63" /> 
<circle cx="71287.2" cy="42152.8" r="120.63" /> 
<circle cx="71287.2" cy="43152.8" r="120.63" /> 
<circle cx="71287.2" cy="44152.8" r="120.63" /> 
<circle cx="71287.2" cy="45152.8" r="120.63" /> 
<circle cx="71287.2" cy="46152.8" r="120.63" /> 
<circle cx="71287.2" cy="47152.8" r="120.63" /> 
<circle cx="71287.2" cy="48152.8" r="120.63" /> 
<circle cx="71287.2" cy="49152.8" r="120.63" /> 
<circle cx="71287.2" cy="50152.8" r="120.63" /> 
<circle cx="3889.53" cy="1920.53" r="118.11" /> 
<circle cx="4873.78" cy="1920.53" r="118.13" /> 
<circle cx="3889.53" cy="1920.53" r="118.11" /> 
<circle cx="4873.78" cy="1920.53" r="118.13" /> 
<circle cx="65576.1" cy="50159.1" r="110.63" /> 
<circle cx="59376.1" cy="51359.1" r="110.63" /> 
<circle cx="67876.1" cy="38659.1" r="110.63" /> 
<circle cx="56376.1" cy="36359.1" r="110.63" /> 
<circle cx="89198.2" cy="50159.1" r="110.63" /> 
<circle cx="82998.2" cy="51359.1" r="110.63" /> 
<circle cx="91498.2" cy="38659.1" r="110.63" /> 
<circle cx="79998.2" cy="36359.1" r="110.63" /> 
<circle cx="1468.53" cy="1920.53" r="256.13" /> 
<circle cx="6310.53" cy="1920.53" r="256.13" /> 
</g>
<g style="fill:#000000; fill-opacity:1.0; 
stroke:#000000; stroke-width:620; stroke-opacity:1; 
stroke-linecap:round; stroke-linejoin:round;">
</g>
<g style="fill:#000000; fill-opacity:0.0; 
stroke:#000000; stroke-width:620; stroke-opacity:1; 
stroke-linecap:round; stroke-linejoin:round;">
<path d="M74147 49152
L74427 49152
" />
<path d="M74147 48152
L74427 48152
" />
<path d="M74147 47152
L74427 47152
" />
<path d="M74147 46152
L74427 46152
" />
<path d="M74147 45152
L74427 45152
" />
<path d="M74147 44152
L74427 44152
" />
<path d="M74147 43152
L74427 43152
" />
<path d="M74147 42152
L74427 42152
" />
<path d="M74147 41152
L74427 41152
" />
<path d="M74147 40152
L74427 40152
" />
<path d="M74147 39152
L74427 39152
" />
<path d="M74147 38152
L74427 38152
" />
<path d="M74147 37152
L74427 37152
" />
</g>
<g style="fill:#000000; fill-opacity:0.0; 
stroke:#000000; stroke-width:78.7402; stroke-opacity:1; 
stroke-linecap:round; stroke-linejoin:round;">
</g>
<g style="fill:#000000; fill-opacity:1.0; 
stroke:#000000; stroke-width:78.7402; stroke-opacity:1; 
stroke-linecap:round; stroke-linejoin:round;">
<polyline style="fill-rule:evenodd;"
points="74697,50423
73876,50423
73876,49882
74697,49882
74697,50423
" /> 
</g>
<g style="fill:#000000; fill-opacity:1.0; 
stroke:#000000; stroke-width:620; stroke-opacity:1; 
stroke-linecap:round; stroke-linejoin:round;">
</g>
<g style="fill:#000000; fill-opacity:0.0; 
stroke:#000000; stroke-width:620; stroke-opacity:1; 
stroke-linecap:round; stroke-linejoin:round;">
<path d="M71147 37152
L71427 37152
" />
<path d="M71147 38152
L71427 38152
" />
<path d="M71147 39152
L71427 39152
" />
<path d="M71147 40152
L71427 40152
" />
<path d="M71147 41152
L71427 41152
" />
<path d="M71147 42152
L71427 42152
" />
<path d="M71147 43152
L71427 43152
" />
<path d="M71147 44152
L71427 44152
" />
<path d="M71147 45152
L71427 45152
" />
<path d="M71147 46152
L71427 46152
" />
<path d="M71147 47152
L71427 47152
" />
<path d="M71147 48152
L71427 48152
" />
<path d="M71147 49152
L71427 49152
" />
<path d="M71147 50152
L71427 50152
" />
</g>
<g style="fill:#000000; fill-opacity:0.0; 
stroke:#000000; stroke-width:78.7402; stroke-opacity:1; 
stroke-linecap:round; stroke-linejoin:round;">
</g>
<g style="fill:#000000; fill-opacity:1.0; 
stroke:#000000; stroke-width:78.7402; stroke-opacity:1; 
stroke-linecap:round; stroke-linejoin:round;">
<polyline style="fill-rule:evenodd;"
points="3672,2137
3672,1703
4106,1703
4106,2137
3672,2137
" /> 
<circle cx="4873.78" cy="1920.53" r="216.535" /> 
<polyline style="fill-rule:evenodd;"
points="3672,2137
3672,1703
4106,1703
4106,2137
3672,2137
" /> 
<circle cx="4873.78" cy="1920.53" r="216.535" /> 
<circle cx="65576.1" cy="50159.1" r="260.63" /> 
<circle cx="59376.1" cy="51359.1" r="260.63" /> 
<circle cx="67876.1" cy="38659.1" r="260.63" /> 
<circle cx="56376.1" cy="36359.1" r="260.63" /> 
<circle cx="89198.2" cy="50159.1" r="260.63" /> 
<circle cx="82998.2" cy="51359.1" r="260.63" /> 
<circle cx="91498.2" cy="38659.1" r="260.63" /> 
<circle cx="79998.2" cy="36359.1" r="260.63" /> 
<circle cx="1468.53" cy="1920.53" r="452.63" /> 
<circle cx="6310.53" cy="1920.53" r="452.63" /> 
</g>
<g style="fill:#FFFFFF; fill-opacity:1.0; 
stroke:#FFFFFF; stroke-width:78.7402; stroke-opacity:1; 
stroke-linecap:round; stroke-linejoin:round;">
<circle cx="74287.2" cy="49152.8" r="120.63" /> 
<circle cx="74287.2" cy="48152.8" r="120.63" /> 
<circle cx="74287.2" cy="47152.8" r="120.63" /> 
<circle cx="74287.2" cy="46152.8" r="120.63" /> 
<circle cx="74287.2" cy="45152.8" r="120.63" /> 
<circle cx="74287.2" cy="44152.8" r="120.63" /> 
<circle cx="74287.2" cy="43152.8" r="120.63" /> 
<circle cx="74287.2" cy="42152.8" r="120.63" /> 
<circle cx="74287.2" cy="41152.8" r="120.63" /> 
<circle cx="74287.2" cy="40152.8" r="120.63" /> 
<circle cx="74287.2" cy="39152.8" r="120.63" /> 
<circle cx="74287.2" cy="38152.8" r="120.63" /> 
<circle cx="74287.2" cy="37152.8" r="120.63" /> 
<circle cx="74287.2" cy="50152.8" r="120.63" /> 
<circle cx="71287.2" cy="37152.8" r="120.63" /> 
<circle cx="71287.2" cy="38152.8" r="120.63" /> 
<circle cx="71287.2" cy="39152.8" r="120.63" /> 
<circle cx="71287.2" cy="40152.8" r="120.63" /> 
<circle cx="71287.2" cy="41152.8" r="120.63" /> 
<circle cx="71287.2" cy="42152.8" r="120.63" /> 
<circle cx="71287.2" cy="43152.8" r="120.63" /> 
<circle cx="71287.2" cy="44152.8" r="120.63" /> 
<circle cx="71287.2" cy="45152.8" r="120.63" /> 
<circle cx="71287.2" cy="46152.8" r="120.63" /> 
<circle cx="71287.2" cy="47152.8" r="120.63" /> 
<circle cx="71287.2" cy="48152.8" r="120.63" /> 
<circle cx="71287.2" cy="49152.8" r="120.63" /> 
<circle cx="71287.2" cy="50152.8" r="120.63" /> 
<circle cx="3889.53" cy="1920.53" r="118.11" /> 
<circle cx="4873.78" cy="1920.53" r="118.13" /> 
<circle cx="3889.53" cy="1920.53" r="118.11" /> 
<circle cx="4873.78" cy="1920.53" r="118.13" /> 
<circle cx="65576.1" cy="50159.1" r="110.63" /> 
<circle cx="59376.1" cy="51359.1" r="110.63" /> 
<circle cx="67876.1" cy="38659.1" r="110.63" /> 
<circle cx="56376.1" cy="36359.1" r="110.63" /> 
<circle cx="89198.2" cy="50159.1" r="110.63" /> 
<circle cx="82998.2" cy="51359.1" r="110.63" /> 
<circle cx="91498.2" cy="38659.1" r="110.63" /> 
<circle cx="79998.2" cy="36359.1" r="110.63" /> 
<circle cx="1468.53" cy="1920.53" r="256.13" /> 
<circle cx="6310.53" cy="1920.53" r="256.13" /> 
</g>
<g style="fill:#000000; fill-opacity:1.0; 
stroke:#000000; stroke-width:59.0551; stroke-opacity:1; 
stroke-linecap:round; stroke-linejoin:round;">
</g>
<g style="fill:#000000; fill-opacity:0.0; 
stroke:#000000; stroke-width:59.0551; stroke-opacity:1; 
stroke-linecap:round; stroke-linejoin:round;">
<path d="M71787 51152
L71787 36152
" />
<path d="M71787 36152
L73787 36152
" />
<path d="M73787 36152
L73787 51152
" />
<path d="M73787 51152
L71787 51152
" />
<path d="M72287 51152
L72287 50652
" />
<path d="M72287 50652
L73287 50652
" />
<path d="M73287 50652
L73287 51152
" />
<path d="M3791 1428
L4972 1428
" />
<path d="M4972 2412
L3791 2412
" />
<path d="M3791 1428
L4972 1428
" />
<path d="M4972 2412
L3791 2412
" />
<circle cx="60976.1" cy="43359.1" r="8800" /> 
<circle cx="60976.1" cy="43359.1" r="6303.17" /> 
<circle cx="84598.2" cy="43359.1" r="8800" /> 
<circle cx="84598.2" cy="43359.1" r="6303.17" /> 
<path d="M1861 424
L5877 404
" />
<path d="M5877 404
L6113 444
" />
<path d="M6113 444
L6448 542
" />
<path d="M6448 542
L6724 700
" />
<path d="M6724 700
L7058 1034
" />
<path d="M7058 1034
L7235 1369
" />
<path d="M7235 1369
L7314 1703
" />
<path d="M7314 1703
L7334 1959
" />
<path d="M7334 1959
L7235 2451
" />
<path d="M7235 2451
L7058 2786
" />
<path d="M7058 2786
L6822 3042
" />
<path d="M6822 3042
L6527 3239
" />
<path d="M6527 3239
L6113 3377
" />
<path d="M6113 3377
L5779 3416
" />
<path d="M5779 3416
L1920 3416
" />
<path d="M1920 3416
L1546 3357
" />
<path d="M1546 3357
L1251 3239
" />
<path d="M1251 3239
L995 3081
" />
<path d="M995 3081
L779 2845
" />
<path d="M779 2845
L562 2491
" />
<path d="M562 2491
L483 2274
" />
<path d="M483 2274
L444 1841
" />
<path d="M444 1841
L523 1428
" />
<path d="M523 1428
L700 1074
" />
<path d="M700 1074
L995 759
" />
<path d="M995 759
L1310 562
" />
<path d="M1310 562
L1625 444
" />
<path d="M1625 444
L1881 424
" />
<path d="M5897 3711
L1980 3711
" />
<path d="M1980 3711
L1704 3692
" />
<path d="M1704 3692
L1330 3613
" />
<path d="M1330 3613
L1035 3455
" />
<path d="M1035 3455
L739 3239
" />
<path d="M739 3239
L464 2944
" />
<path d="M464 2944
L267 2530
" />
<path d="M267 2530
L169 2176
" />
<path d="M169 2176
L129 1920
" />
<path d="M129 1920
L169 1605
" />
<path d="M169 1605
L306 1192
" />
<path d="M306 1192
L503 857
" />
<path d="M503 857
L680 640
" />
<path d="M680 640
L956 424
" />
<path d="M956 424
L1291 247
" />
<path d="M1291 247
L1606 168
" />
<path d="M1606 168
L1901 129
" />
<path d="M1901 129
L5897 129
" />
<path d="M5897 129
L6271 168
" />
<path d="M6271 168
L6606 306
" />
<path d="M6606 306
L6960 522
" />
<path d="M6960 522
L7196 759
" />
<path d="M7196 759
L7511 1270
" />
<path d="M7511 1270
L7609 1664
" />
<path d="M7609 1664
L7629 2018
" />
<path d="M7629 2018
L7570 2373
" />
<path d="M7570 2373
L7472 2648
" />
<path d="M7472 2648
L7295 2944
" />
<path d="M7295 2944
L7039 3239
" />
<path d="M7039 3239
L6861 3396
" />
<path d="M6861 3396
L6546 3554
" />
<path d="M6546 3554
L6192 3672
" />
<path d="M6192 3672
L5897 3711
" />
<path d="M72009 35956
L72009 35563
" />
<path d="M72421 35919
L72402 35938
L72346 35956
L72309 35956
L72252 35938
L72215 35900
L72196 35863
L72177 35788
L72177 35731
L72196 35656
L72215 35619
L72252 35581
L72309 35563
L72346 35563
L72402 35581
L72421 35600
" />
<path d="M72796 35956
L72571 35956
" />
<path d="M72684 35956
L72684 35563
L72646 35619
L72609 35656
L72571 35675
" />
<path d="M4316 1076
L4297 1095
L4241 1114
L4203 1114
L4147 1095
L4109 1058
L4091 1020
L4072 945
L4072 889
L4091 814
L4109 776
L4147 739
L4203 720
L4241 720
L4297 739
L4316 758
" />
<path d="M4690 1114
L4466 1114
" />
<path d="M4578 1114
L4578 720
L4541 776
L4503 814
L4466 833
" />
<path d="M4316 1076
L4297 1095
L4241 1114
L4203 1114
L4147 1095
L4109 1058
L4091 1020
L4072 945
L4072 889
L4091 814
L4109 776
L4147 739
L4203 720
L4241 720
L4297 739
L4316 758
" />
<path d="M4466 758
L4484 739
L4522 720
L4616 720
L4653 739
L4672 758
L4690 795
L4690 833
L4672 889
L4447 1114
L4690 1114
" />
<path d="M55926 33635
L55926 34113
L55954 34170
L55982 34198
L56038 34226
L56151 34226
L56207 34198
L56235 34170
L56263 34113
L56263 33635
" />
<path d="M56854 34226
L56516 34226
" />
<path d="M56685 34226
L56685 33635
L56629 33720
L56572 33776
L56516 33804
" />
<path d="M63312 34132
L63312 34526
" />
<path d="M63312 34188
L63340 34160
L63396 34132
L63481 34132
L63537 34160
L63565 34216
L63565 34526
" />
<path d="M64071 34498
L64015 34526
L63902 34526
L63846 34498
L63818 34441
L63818 34216
L63846 34160
L63902 34132
L64015 34132
L64071 34160
L64099 34216
L64099 34273
L63818 34329
" />
<path d="M64437 34526
L64380 34498
L64352 34470
L64324 34413
L64324 34245
L64352 34188
L64380 34160
L64437 34132
L64521 34132
L64577 34160
L64605 34188
L64634 34245
L64634 34413
L64605 34470
L64577 34498
L64521 34526
L64437 34526
" />
<path d="M64887 34132
L64887 34723
" />
<path d="M64887 34160
L64943 34132
L65055 34132
L65112 34160
L65140 34188
L65168 34245
L65168 34413
L65140 34470
L65112 34498
L65055 34526
L64943 34526
L64887 34498
" />
<path d="M65421 34526
L65421 34132
" />
<path d="M65421 33935
L65393 33963
L65421 33991
L65449 33963
L65421 33935
L65421 33991
" />
<path d="M65646 34526
L65955 34132
" />
<path d="M65646 34132
L65955 34526
" />
<path d="M66405 34498
L66349 34526
L66236 34526
L66180 34498
L66152 34441
L66152 34216
L66180 34160
L66236 34132
L66349 34132
L66405 34160
L66433 34216
L66433 34273
L66152 34329
" />
<path d="M66771 34526
L66715 34498
L66686 34441
L66686 33935
" />
<path d="M67305 34526
L66968 34526
" />
<path d="M67136 34526
L67136 33935
L67080 34020
L67024 34076
L66968 34104
" />
<path d="M67811 33935
L67699 33935
L67643 33963
L67614 33991
L67558 34076
L67530 34188
L67530 34413
L67558 34470
L67586 34498
L67643 34526
L67755 34526
L67811 34498
L67839 34470
L67868 34413
L67868 34273
L67839 34216
L67811 34188
L67755 34160
L67643 34160
L67586 34188
L67558 34216
L67530 34273
" />
<path d="M57321 50626
L57321 50035
L57462 50035
L57546 50063
L57602 50120
L57631 50176
L57659 50288
L57659 50373
L57631 50485
L57602 50541
L57546 50598
L57462 50626
L57321 50626
" />
<path d="M57884 50457
L58165 50457
" />
<path d="M57827 50626
L58024 50035
L58221 50626
" />
<path d="M58334 50035
L58671 50035
" />
<path d="M58502 50626
L58502 50035
" />
<path d="M58840 50457
L59121 50457
" />
<path d="M58784 50626
L58980 50035
L59177 50626
" />
<path d="M59936 50035
L60049 50035
L60105 50063
L60161 50120
L60190 50232
L60190 50429
L60161 50541
L60105 50598
L60049 50626
L59936 50626
L59880 50598
L59824 50541
L59796 50429
L59796 50232
L59824 50120
L59880 50063
L59936 50035
" />
<path d="M60443 50035
L60443 50513
L60471 50570
L60499 50598
L60555 50626
L60668 50626
L60724 50598
L60752 50570
L60780 50513
L60780 50035
" />
<path d="M60977 50035
L61314 50035
" />
<path d="M61146 50626
L61146 50035
" />
<path d="M63915 49626
L63915 49035
L64056 49035
L64140 49063
L64196 49120
L64224 49176
L64252 49288
L64252 49373
L64224 49485
L64196 49541
L64140 49598
L64056 49626
L63915 49626
" />
<path d="M64477 49457
L64759 49457
" />
<path d="M64421 49626
L64618 49035
L64815 49626
" />
<path d="M64927 49035
L65265 49035
" />
<path d="M65096 49626
L65096 49035
" />
<path d="M65433 49457
L65715 49457
" />
<path d="M65377 49626
L65574 49035
L65771 49626
" />
<path d="M66418 49626
L66418 49035
" />
<path d="M66699 49626
L66699 49035
L67036 49626
L67036 49035
" />
<path d="M57426 35963
L57369 35935
L57285 35935
L57201 35963
L57144 36020
L57116 36076
L57088 36188
L57088 36273
L57116 36385
L57144 36441
L57201 36498
L57285 36526
L57341 36526
L57426 36498
L57454 36470
L57454 36273
L57341 36273
" />
<path d="M57707 36526
L57707 35935
L58044 36526
L58044 35935
" />
<path d="M58326 36526
L58326 35935
L58466 35935
L58551 35963
L58607 36020
L58635 36076
L58663 36188
L58663 36273
L58635 36385
L58607 36441
L58551 36498
L58466 36526
L58326 36526
" />
<path d="M65248 37635
L64966 37635
L64938 37916
L64966 37888
L65023 37860
L65163 37860
L65220 37888
L65248 37916
L65276 37973
L65276 38113
L65248 38170
L65220 38198
L65163 38226
L65023 38226
L64966 38198
L64938 38170
" />
<path d="M65444 37635
L65641 38226
L65838 37635
" />
<path d="M66485 38226
L66485 37635
L66626 37635
L66710 37663
L66766 37720
L66794 37776
L66822 37888
L66822 37973
L66794 38085
L66766 38141
L66710 38198
L66626 38226
L66485 38226
" />
<path d="M67413 38170
L67385 38198
L67301 38226
L67244 38226
L67160 38198
L67104 38141
L67076 38085
L67047 37973
L67047 37888
L67076 37776
L67104 37720
L67160 37663
L67244 37635
L67301 37635
L67385 37663
L67413 37691
" />
<path d="M79548 33635
L79548 34113
L79576 34170
L79604 34198
L79660 34226
L79773 34226
L79829 34198
L79857 34170
L79885 34113
L79885 33635
" />
<path d="M80138 33691
L80166 33663
L80223 33635
L80363 33635
L80420 33663
L80448 33691
L80476 33748
L80476 33804
L80448 33888
L80110 34226
L80476 34226
" />
<path d="M86934 34132
L86934 34526
" />
<path d="M86934 34188
L86962 34160
L87018 34132
L87103 34132
L87159 34160
L87187 34216
L87187 34526
" />
<path d="M87693 34498
L87637 34526
L87524 34526
L87468 34498
L87440 34441
L87440 34216
L87468 34160
L87524 34132
L87637 34132
L87693 34160
L87721 34216
L87721 34273
L87440 34329
" />
<path d="M88059 34526
L88003 34498
L87974 34470
L87946 34413
L87946 34245
L87974 34188
L88003 34160
L88059 34132
L88143 34132
L88199 34160
L88227 34188
L88256 34245
L88256 34413
L88227 34470
L88199 34498
L88143 34526
L88059 34526
" />
<path d="M88509 34132
L88509 34723
" />
<path d="M88509 34160
L88565 34132
L88677 34132
L88734 34160
L88762 34188
L88790 34245
L88790 34413
L88762 34470
L88734 34498
L88677 34526
L88565 34526
L88509 34498
" />
<path d="M89043 34526
L89043 34132
" />
<path d="M89043 33935
L89015 33963
L89043 33991
L89071 33963
L89043 33935
L89043 33991
" />
<path d="M89268 34526
L89577 34132
" />
<path d="M89268 34132
L89577 34526
" />
<path d="M90027 34498
L89971 34526
L89859 34526
L89802 34498
L89774 34441
L89774 34216
L89802 34160
L89859 34132
L89971 34132
L90027 34160
L90055 34216
L90055 34273
L89774 34329
" />
<path d="M90393 34526
L90337 34498
L90308 34441
L90308 33935
" />
<path d="M90927 34526
L90590 34526
" />
<path d="M90758 34526
L90758 33935
L90702 34020
L90646 34076
L90590 34104
" />
<path d="M91433 33935
L91321 33935
L91265 33963
L91236 33991
L91180 34076
L91152 34188
L91152 34413
L91180 34470
L91208 34498
L91265 34526
L91377 34526
L91433 34498
L91461 34470
L91490 34413
L91490 34273
L91461 34216
L91433 34188
L91377 34160
L91265 34160
L91208 34188
L91180 34216
L91152 34273
" />
<path d="M80943 50626
L80943 50035
L81084 50035
L81168 50063
L81224 50120
L81253 50176
L81281 50288
L81281 50373
L81253 50485
L81224 50541
L81168 50598
L81084 50626
L80943 50626
" />
<path d="M81506 50457
L81787 50457
" />
<path d="M81449 50626
L81646 50035
L81843 50626
" />
<path d="M81956 50035
L82293 50035
" />
<path d="M82124 50626
L82124 50035
" />
<path d="M82462 50457
L82743 50457
" />
<path d="M82406 50626
L82602 50035
L82799 50626
" />
<path d="M83559 50035
L83671 50035
L83727 50063
L83784 50120
L83812 50232
L83812 50429
L83784 50541
L83727 50598
L83671 50626
L83559 50626
L83502 50598
L83446 50541
L83418 50429
L83418 50232
L83446 50120
L83502 50063
L83559 50035
" />
<path d="M84065 50035
L84065 50513
L84093 50570
L84121 50598
L84177 50626
L84290 50626
L84346 50598
L84374 50570
L84402 50513
L84402 50035
" />
<path d="M84599 50035
L84936 50035
" />
<path d="M84768 50626
L84768 50035
" />
<path d="M87537 49626
L87537 49035
L87678 49035
L87762 49063
L87818 49120
L87846 49176
L87874 49288
L87874 49373
L87846 49485
L87818 49541
L87762 49598
L87678 49626
L87537 49626
" />
<path d="M88099 49457
L88381 49457
" />
<path d="M88043 49626
L88240 49035
L88437 49626
" />
<path d="M88549 49035
L88887 49035
" />
<path d="M88718 49626
L88718 49035
" />
<path d="M89056 49457
L89337 49457
" />
<path d="M88999 49626
L89196 49035
L89393 49626
" />
<path d="M90040 49626
L90040 49035
" />
<path d="M90321 49626
L90321 49035
L90658 49626
L90658 49035
" />
<path d="M81048 35963
L80992 35935
L80907 35935
L80823 35963
L80767 36020
L80738 36076
L80710 36188
L80710 36273
L80738 36385
L80767 36441
L80823 36498
L80907 36526
L80963 36526
L81048 36498
L81076 36470
L81076 36273
L80963 36273
" />
<path d="M81329 36526
L81329 35935
L81666 36526
L81666 35935
" />
<path d="M81948 36526
L81948 35935
L82088 35935
L82173 35963
L82229 36020
L82257 36076
L82285 36188
L82285 36273
L82257 36385
L82229 36441
L82173 36498
L82088 36526
L81948 36526
" />
<path d="M88870 37635
L88588 37635
L88560 37916
L88588 37888
L88645 37860
L88785 37860
L88842 37888
L88870 37916
L88898 37973
L88898 38113
L88870 38170
L88842 38198
L88785 38226
L88645 38226
L88588 38198
L88560 38170
" />
<path d="M89067 37635
L89263 38226
L89460 37635
" />
<path d="M90107 38226
L90107 37635
L90248 37635
L90332 37663
L90388 37720
L90416 37776
L90444 37888
L90444 37973
L90416 38085
L90388 38141
L90332 38198
L90248 38226
L90107 38226
" />
<path d="M91035 38170
L91007 38198
L90923 38226
L90866 38226
L90782 38198
L90726 38141
L90698 38085
L90669 37973
L90669 37888
L90698 37776
L90726 37720
L90782 37663
L90866 37635
L90923 37635
L91007 37663
L91035 37691
" />
<path d="M3570 1704
L3833 2098
" />
<path d="M3833 1704
L3570 2098
" />
<path d="M4189 2098
L3964 2098
" />
<path d="M4077 2098
L4077 1704
L4039 1761
L4002 1798
L3964 1817
" />
<path d="M72852 45865
L72852 45677
" />
<path d="M72965 45902
L72571 45771
L72965 45640
" />
<path d="M72571 45565
L72571 45340
" />
<path d="M72965 45452
L72571 45452
" />
<path d="M72965 45208
L72571 45208
L72852 45077
L72571 44946
L72965 44946
" />
<path d="M72759 44758
L72759 44627
" />
<path d="M72965 44571
L72965 44758
L72571 44758
L72571 44571
" />
<path d="M72590 44196
L72571 44233
L72571 44290
L72590 44346
L72627 44383
L72665 44402
L72740 44421
L72796 44421
L72871 44402
L72909 44383
L72946 44346
L72965 44290
L72965 44252
L72946 44196
L72927 44177
L72796 44177
L72796 44252
" />
<path d="M72852 44027
L72852 43840
" />
<path d="M72965 44065
L72571 43934
L72965 43802
" />
<path d="M72571 43709
L72571 43465
L72721 43596
L72721 43540
L72740 43502
L72759 43484
L72796 43465
L72890 43465
L72927 43484
L72946 43502
L72965 43540
L72965 43652
L72946 43690
L72927 43709
" />
<path d="M72609 43315
L72590 43296
L72571 43259
L72571 43165
L72590 43127
L72609 43109
L72646 43090
L72684 43090
L72740 43109
L72965 43334
L72965 43090
" />
<path d="M72740 42865
L72721 42902
L72702 42921
L72665 42940
L72646 42940
L72609 42921
L72590 42902
L72571 42865
L72571 42790
L72590 42752
L72609 42734
L72646 42715
L72665 42715
L72702 42734
L72721 42752
L72740 42790
L72740 42865
L72759 42902
L72777 42921
L72815 42940
L72890 42940
L72927 42921
L72946 42902
L72965 42865
L72965 42790
L72946 42752
L72927 42734
L72890 42715
L72815 42715
L72777 42734
L72759 42752
L72740 42790
" />
<path d="M72965 42546
L72571 42546
L72571 42396
L72590 42359
L72609 42340
L72646 42321
L72702 42321
L72740 42340
L72759 42359
L72777 42396
L72777 42546
" />
<path d="M72815 42152
L72815 41853
" />
<path d="M72965 41665
L72571 41665
L72571 41515
L72590 41478
L72609 41459
L72646 41440
L72702 41440
L72740 41459
L72759 41478
L72777 41515
L72777 41665
" />
<path d="M4503 3045
L4484 3064
L4428 3082
L4391 3082
L4334 3064
L4297 3026
L4278 2989
L4259 2914
L4259 2857
L4278 2782
L4297 2745
L4334 2707
L4391 2689
L4428 2689
L4484 2707
L4503 2726
" />
<path d="M4503 3045
L4484 3064
L4428 3082
L4391 3082
L4334 3064
L4297 3026
L4278 2989
L4259 2914
L4259 2857
L4278 2782
L4297 2745
L4334 2707
L4391 2689
L4428 2689
L4484 2707
L4503 2726
" />
<path d="M2980 4561
L2961 4579
L2905 4598
L2867 4598
L2811 4579
L2774 4542
L2755 4504
L2736 4429
L2736 4373
L2755 4298
L2774 4261
L2811 4223
L2867 4204
L2905 4204
L2961 4223
L2980 4242
" />
<path d="M3373 4598
L3242 4411
" />
<path d="M3148 4598
L3148 4204
L3298 4204
L3336 4223
L3355 4242
L3373 4279
L3373 4336
L3355 4373
L3336 4392
L3298 4411
L3148 4411
" />
<path d="M3617 4411
L3617 4598
" />
<path d="M3486 4204
L3617 4411
L3748 4204
" />
<path d="M3861 4579
L3917 4598
L4011 4598
L4048 4579
L4067 4561
L4086 4523
L4086 4486
L4067 4448
L4048 4429
L4011 4411
L3936 4392
L3898 4373
L3880 4354
L3861 4317
L3861 4279
L3880 4242
L3898 4223
L3936 4204
L4030 4204
L4086 4223
" />
<path d="M4198 4204
L4423 4204
" />
<path d="M4311 4598
L4311 4204
" />
<path d="M4536 4486
L4723 4486
" />
<path d="M4498 4598
L4630 4204
L4761 4598
" />
<path d="M5080 4598
L4892 4598
L4892 4204
" />
</g> 
</svg>
