<?xml version="1.0" standalone="no"?>
 <!DOCTYPE svg PUBLIC "-//W3C//DTD SVG 1.1//EN" 
 "http://www.w3.org/Graphics/SVG/1.1/DTD/svg11.dtd"> 
<svg xmlns="http://www.w3.org/2000/svg" version="1.1" 
    width="11.0084cm" height="5.01904cm" viewBox="0 0 43340 19760 ">
<title>SVG Picture created as ada-brd.svg date 2015/09/22 13:51:25 </title>
  <desc>Picture generated by PCBNEW </desc>
<g style="fill:#000000; fill-opacity:1;stroke:#000000; stroke-opacity:1;
stroke-linecap:round; stroke-linejoin:round; "
 transform="translate(0 0) scale(1 1)">
</g>
<g style="fill:#000000; fill-opacity:0.0; 
stroke:#000000; stroke-width:620; stroke-opacity:1; 
stroke-linecap:round; stroke-linejoin:round;">
<path d="M23033 15795
L23313 15795
" />
<path d="M23033 14795
L23313 14795
" />
<path d="M23033 13795
L23313 13795
" />
<path d="M23033 12795
L23313 12795
" />
<path d="M23033 11795
L23313 11795
" />
<path d="M23033 10795
L23313 10795
" />
<path d="M23033 9795
L23313 9795
" />
<path d="M23033 8795
L23313 8795
" />
<path d="M23033 7795
L23313 7795
" />
<path d="M23033 6795
L23313 6795
" />
<path d="M23033 5795
L23313 5795
" />
<path d="M23033 4795
L23313 4795
" />
<path d="M23033 3795
L23313 3795
" />
</g>
<g style="fill:#000000; fill-opacity:0.0; 
stroke:#000000; stroke-width:78.7402; stroke-opacity:1; 
stroke-linecap:round; stroke-linejoin:round;">
</g>
<g style="fill:#000000; fill-opacity:1.0; 
stroke:#000000; stroke-width:78.7402; stroke-opacity:1; 
stroke-linecap:round; stroke-linejoin:round;">
<polyline style="fill-rule:evenodd;"
points="23583,17066
22762,17066
22762,16525
23583,16525
23583,17066
" /> 
</g>
<g style="fill:#000000; fill-opacity:1.0; 
stroke:#000000; stroke-width:620; stroke-opacity:1; 
stroke-linecap:round; stroke-linejoin:round;">
</g>
<g style="fill:#000000; fill-opacity:0.0; 
stroke:#000000; stroke-width:620; stroke-opacity:1; 
stroke-linecap:round; stroke-linejoin:round;">
<path d="M20033 3795
L20313 3795
" />
<path d="M20033 4795
L20313 4795
" />
<path d="M20033 5795
L20313 5795
" />
<path d="M20033 6795
L20313 6795
" />
<path d="M20033 7795
L20313 7795
" />
<path d="M20033 8795
L20313 8795
" />
<path d="M20033 9795
L20313 9795
" />
<path d="M20033 10795
L20313 10795
" />
<path d="M20033 11795
L20313 11795
" />
<path d="M20033 12795
L20313 12795
" />
<path d="M20033 13795
L20313 13795
" />
<path d="M20033 14795
L20313 14795
" />
<path d="M20033 15795
L20313 15795
" />
<path d="M20033 16795
L20313 16795
" />
</g>
<g style="fill:#000000; fill-opacity:0.0; 
stroke:#000000; stroke-width:78.7402; stroke-opacity:1; 
stroke-linecap:round; stroke-linejoin:round;">
</g>
<g style="fill:#000000; fill-opacity:1.0; 
stroke:#000000; stroke-width:78.7402; stroke-opacity:1; 
stroke-linecap:round; stroke-linejoin:round;">
<circle cx="14462.2" cy="16802" r="260.63" /> 
<circle cx="8262.21" cy="18002" r="260.63" /> 
<circle cx="16762.2" cy="5301.97" r="260.63" /> 
<circle cx="5262.21" cy="3001.97" r="260.63" /> 
<circle cx="38084.3" cy="16802" r="260.63" /> 
<circle cx="31884.3" cy="18002" r="260.63" /> 
<circle cx="40384.3" cy="5301.97" r="260.63" /> 
<circle cx="28884.3" cy="3001.97" r="260.63" /> 
</g>
<g style="fill:#FFFFFF; fill-opacity:1.0; 
stroke:#FFFFFF; stroke-width:78.7402; stroke-opacity:1; 
stroke-linecap:round; stroke-linejoin:round;">
<circle cx="23173.2" cy="15795.7" r="120.63" /> 
<circle cx="23173.2" cy="14795.7" r="120.63" /> 
<circle cx="23173.2" cy="13795.7" r="120.63" /> 
<circle cx="23173.2" cy="12795.7" r="120.63" /> 
<circle cx="23173.2" cy="11795.7" r="120.63" /> 
<circle cx="23173.2" cy="10795.7" r="120.63" /> 
<circle cx="23173.2" cy="9795.67" r="120.63" /> 
<circle cx="23173.2" cy="8795.67" r="120.63" /> 
<circle cx="23173.2" cy="7795.67" r="120.63" /> 
<circle cx="23173.2" cy="6795.67" r="120.63" /> 
<circle cx="23173.2" cy="5795.67" r="120.63" /> 
<circle cx="23173.2" cy="4795.67" r="120.63" /> 
<circle cx="23173.2" cy="3795.67" r="120.63" /> 
<circle cx="23173.2" cy="16795.7" r="120.63" /> 
<circle cx="20173.2" cy="3795.67" r="120.63" /> 
<circle cx="20173.2" cy="4795.67" r="120.63" /> 
<circle cx="20173.2" cy="5795.67" r="120.63" /> 
<circle cx="20173.2" cy="6795.67" r="120.63" /> 
<circle cx="20173.2" cy="7795.67" r="120.63" /> 
<circle cx="20173.2" cy="8795.67" r="120.63" /> 
<circle cx="20173.2" cy="9795.67" r="120.63" /> 
<circle cx="20173.2" cy="10795.7" r="120.63" /> 
<circle cx="20173.2" cy="11795.7" r="120.63" /> 
<circle cx="20173.2" cy="12795.7" r="120.63" /> 
<circle cx="20173.2" cy="13795.7" r="120.63" /> 
<circle cx="20173.2" cy="14795.7" r="120.63" /> 
<circle cx="20173.2" cy="15795.7" r="120.63" /> 
<circle cx="20173.2" cy="16795.7" r="120.63" /> 
<circle cx="14462.2" cy="16802" r="110.63" /> 
<circle cx="8262.21" cy="18002" r="110.63" /> 
<circle cx="16762.2" cy="5301.97" r="110.63" /> 
<circle cx="5262.21" cy="3001.97" r="110.63" /> 
<circle cx="38084.3" cy="16802" r="110.63" /> 
<circle cx="31884.3" cy="18002" r="110.63" /> 
<circle cx="40384.3" cy="5301.97" r="110.63" /> 
<circle cx="28884.3" cy="3001.97" r="110.63" /> 
</g>
<g style="fill:#000000; fill-opacity:1.0; 
stroke:#000000; stroke-width:620; stroke-opacity:1; 
stroke-linecap:round; stroke-linejoin:round;">
</g>
<g style="fill:#000000; fill-opacity:0.0; 
stroke:#000000; stroke-width:620; stroke-opacity:1; 
stroke-linecap:round; stroke-linejoin:round;">
<path d="M23033 15795
L23313 15795
" />
<path d="M23033 14795
L23313 14795
" />
<path d="M23033 13795
L23313 13795
" />
<path d="M23033 12795
L23313 12795
" />
<path d="M23033 11795
L23313 11795
" />
<path d="M23033 10795
L23313 10795
" />
<path d="M23033 9795
L23313 9795
" />
<path d="M23033 8795
L23313 8795
" />
<path d="M23033 7795
L23313 7795
" />
<path d="M23033 6795
L23313 6795
" />
<path d="M23033 5795
L23313 5795
" />
<path d="M23033 4795
L23313 4795
" />
<path d="M23033 3795
L23313 3795
" />
</g>
<g style="fill:#000000; fill-opacity:0.0; 
stroke:#000000; stroke-width:78.7402; stroke-opacity:1; 
stroke-linecap:round; stroke-linejoin:round;">
</g>
<g style="fill:#000000; fill-opacity:1.0; 
stroke:#000000; stroke-width:78.7402; stroke-opacity:1; 
stroke-linecap:round; stroke-linejoin:round;">
<polyline style="fill-rule:evenodd;"
points="23583,17066
22762,17066
22762,16525
23583,16525
23583,17066
" /> 
</g>
<g style="fill:#000000; fill-opacity:1.0; 
stroke:#000000; stroke-width:620; stroke-opacity:1; 
stroke-linecap:round; stroke-linejoin:round;">
</g>
<g style="fill:#000000; fill-opacity:0.0; 
stroke:#000000; stroke-width:620; stroke-opacity:1; 
stroke-linecap:round; stroke-linejoin:round;">
<path d="M20033 3795
L20313 3795
" />
<path d="M20033 4795
L20313 4795
" />
<path d="M20033 5795
L20313 5795
" />
<path d="M20033 6795
L20313 6795
" />
<path d="M20033 7795
L20313 7795
" />
<path d="M20033 8795
L20313 8795
" />
<path d="M20033 9795
L20313 9795
" />
<path d="M20033 10795
L20313 10795
" />
<path d="M20033 11795
L20313 11795
" />
<path d="M20033 12795
L20313 12795
" />
<path d="M20033 13795
L20313 13795
" />
<path d="M20033 14795
L20313 14795
" />
<path d="M20033 15795
L20313 15795
" />
<path d="M20033 16795
L20313 16795
" />
</g>
<g style="fill:#000000; fill-opacity:0.0; 
stroke:#000000; stroke-width:78.7402; stroke-opacity:1; 
stroke-linecap:round; stroke-linejoin:round;">
</g>
<g style="fill:#000000; fill-opacity:1.0; 
stroke:#000000; stroke-width:78.7402; stroke-opacity:1; 
stroke-linecap:round; stroke-linejoin:round;">
<circle cx="14462.2" cy="16802" r="260.63" /> 
<circle cx="8262.21" cy="18002" r="260.63" /> 
<circle cx="16762.2" cy="5301.97" r="260.63" /> 
<circle cx="5262.21" cy="3001.97" r="260.63" /> 
<circle cx="38084.3" cy="16802" r="260.63" /> 
<circle cx="31884.3" cy="18002" r="260.63" /> 
<circle cx="40384.3" cy="5301.97" r="260.63" /> 
<circle cx="28884.3" cy="3001.97" r="260.63" /> 
</g>
<g style="fill:#FFFFFF; fill-opacity:1.0; 
stroke:#FFFFFF; stroke-width:78.7402; stroke-opacity:1; 
stroke-linecap:round; stroke-linejoin:round;">
<circle cx="23173.2" cy="15795.7" r="120.63" /> 
<circle cx="23173.2" cy="14795.7" r="120.63" /> 
<circle cx="23173.2" cy="13795.7" r="120.63" /> 
<circle cx="23173.2" cy="12795.7" r="120.63" /> 
<circle cx="23173.2" cy="11795.7" r="120.63" /> 
<circle cx="23173.2" cy="10795.7" r="120.63" /> 
<circle cx="23173.2" cy="9795.67" r="120.63" /> 
<circle cx="23173.2" cy="8795.67" r="120.63" /> 
<circle cx="23173.2" cy="7795.67" r="120.63" /> 
<circle cx="23173.2" cy="6795.67" r="120.63" /> 
<circle cx="23173.2" cy="5795.67" r="120.63" /> 
<circle cx="23173.2" cy="4795.67" r="120.63" /> 
<circle cx="23173.2" cy="3795.67" r="120.63" /> 
<circle cx="23173.2" cy="16795.7" r="120.63" /> 
<circle cx="20173.2" cy="3795.67" r="120.63" /> 
<circle cx="20173.2" cy="4795.67" r="120.63" /> 
<circle cx="20173.2" cy="5795.67" r="120.63" /> 
<circle cx="20173.2" cy="6795.67" r="120.63" /> 
<circle cx="20173.2" cy="7795.67" r="120.63" /> 
<circle cx="20173.2" cy="8795.67" r="120.63" /> 
<circle cx="20173.2" cy="9795.67" r="120.63" /> 
<circle cx="20173.2" cy="10795.7" r="120.63" /> 
<circle cx="20173.2" cy="11795.7" r="120.63" /> 
<circle cx="20173.2" cy="12795.7" r="120.63" /> 
<circle cx="20173.2" cy="13795.7" r="120.63" /> 
<circle cx="20173.2" cy="14795.7" r="120.63" /> 
<circle cx="20173.2" cy="15795.7" r="120.63" /> 
<circle cx="20173.2" cy="16795.7" r="120.63" /> 
<circle cx="14462.2" cy="16802" r="110.63" /> 
<circle cx="8262.21" cy="18002" r="110.63" /> 
<circle cx="16762.2" cy="5301.97" r="110.63" /> 
<circle cx="5262.21" cy="3001.97" r="110.63" /> 
<circle cx="38084.3" cy="16802" r="110.63" /> 
<circle cx="31884.3" cy="18002" r="110.63" /> 
<circle cx="40384.3" cy="5301.97" r="110.63" /> 
<circle cx="28884.3" cy="3001.97" r="110.63" /> 
</g>
<g style="fill:#000000; fill-opacity:1.0; 
stroke:#000000; stroke-width:59.0551; stroke-opacity:1; 
stroke-linecap:round; stroke-linejoin:round;">
</g>
<g style="fill:#000000; fill-opacity:0.0; 
stroke:#000000; stroke-width:59.0551; stroke-opacity:1; 
stroke-linecap:round; stroke-linejoin:round;">
<path d="M20673 17795
L20673 2795
" />
<path d="M20673 2795
L22673 2795
" />
<path d="M22673 2795
L22673 17795
" />
<path d="M22673 17795
L20673 17795
" />
<path d="M21173 17795
L21173 17295
" />
<path d="M21173 17295
L22173 17295
" />
<path d="M22173 17295
L22173 17795
" />
<circle cx="9862.21" cy="10002" r="8800" /> 
<circle cx="9862.21" cy="10002" r="6303.17" /> 
<circle cx="33484.3" cy="10002" r="8800" /> 
<circle cx="33484.3" cy="10002" r="6303.17" /> 
<path d="M20895 2599
L20895 2206
" />
<path d="M21307 2562
L21288 2581
L21232 2599
L21195 2599
L21138 2581
L21101 2543
L21082 2506
L21063 2431
L21063 2374
L21082 2299
L21101 2262
L21138 2224
L21195 2206
L21232 2206
L21288 2224
L21307 2243
" />
<path d="M21682 2599
L21457 2599
" />
<path d="M21570 2599
L21570 2206
L21532 2262
L21495 2299
L21457 2318
" />
<path d="M4812 278
L4812 756
L4840 812
L4868 841
L4924 869
L5037 869
L5093 841
L5121 812
L5149 756
L5149 278
" />
<path d="M5740 869
L5402 869
" />
<path d="M5571 869
L5571 278
L5515 362
L5459 419
L5402 447
" />
<path d="M7598 9775
L7598 10169
" />
<path d="M7598 9831
L7626 9803
L7682 9775
L7767 9775
L7823 9803
L7851 9859
L7851 10169
" />
<path d="M8357 10141
L8301 10169
L8188 10169
L8132 10141
L8104 10084
L8104 9859
L8132 9803
L8188 9775
L8301 9775
L8357 9803
L8385 9859
L8385 9916
L8104 9972
" />
<path d="M8723 10169
L8667 10141
L8638 10112
L8610 10056
L8610 9887
L8638 9831
L8667 9803
L8723 9775
L8807 9775
L8863 9803
L8892 9831
L8920 9887
L8920 10056
L8892 10112
L8863 10141
L8807 10169
L8723 10169
" />
<path d="M9173 9775
L9173 10365
" />
<path d="M9173 9803
L9229 9775
L9341 9775
L9398 9803
L9426 9831
L9454 9887
L9454 10056
L9426 10112
L9398 10141
L9341 10169
L9229 10169
L9173 10141
" />
<path d="M9707 10169
L9707 9775
" />
<path d="M9707 9578
L9679 9606
L9707 9634
L9735 9606
L9707 9578
L9707 9634
" />
<path d="M9932 10169
L10241 9775
" />
<path d="M9932 9775
L10241 10169
" />
<path d="M10691 10141
L10635 10169
L10523 10169
L10466 10141
L10438 10084
L10438 9859
L10466 9803
L10523 9775
L10635 9775
L10691 9803
L10719 9859
L10719 9916
L10438 9972
" />
<path d="M11057 10169
L11001 10141
L10973 10084
L10973 9578
" />
<path d="M11591 10169
L11254 10169
" />
<path d="M11422 10169
L11422 9578
L11366 9662
L11310 9719
L11254 9747
" />
<path d="M12097 9578
L11985 9578
L11929 9606
L11901 9634
L11844 9719
L11816 9831
L11816 10056
L11844 10112
L11872 10141
L11929 10169
L12041 10169
L12097 10141
L12125 10112
L12154 10056
L12154 9916
L12125 9859
L12097 9831
L12041 9803
L11929 9803
L11872 9831
L11844 9859
L11816 9916
" />
<path d="M6207 17269
L6207 16678
L6348 16678
L6432 16706
L6488 16762
L6517 16819
L6545 16931
L6545 17016
L6517 17128
L6488 17184
L6432 17241
L6348 17269
L6207 17269
" />
<path d="M6770 17100
L7051 17100
" />
<path d="M6713 17269
L6910 16678
L7107 17269
" />
<path d="M7220 16678
L7557 16678
" />
<path d="M7388 17269
L7388 16678
" />
<path d="M7726 17100
L8007 17100
" />
<path d="M7670 17269
L7866 16678
L8063 17269
" />
<path d="M8823 16678
L8935 16678
L8991 16706
L9048 16762
L9076 16875
L9076 17072
L9048 17184
L8991 17241
L8935 17269
L8823 17269
L8766 17241
L8710 17184
L8682 17072
L8682 16875
L8710 16762
L8766 16706
L8823 16678
" />
<path d="M9329 16678
L9329 17156
L9357 17212
L9385 17241
L9441 17269
L9554 17269
L9610 17241
L9638 17212
L9666 17156
L9666 16678
" />
<path d="M9863 16678
L10201 16678
" />
<path d="M10032 17269
L10032 16678
" />
<path d="M12801 16269
L12801 15678
L12942 15678
L13026 15706
L13082 15762
L13110 15819
L13138 15931
L13138 16016
L13110 16128
L13082 16184
L13026 16241
L12942 16269
L12801 16269
" />
<path d="M13363 16100
L13645 16100
" />
<path d="M13307 16269
L13504 15678
L13701 16269
" />
<path d="M13813 15678
L14151 15678
" />
<path d="M13982 16269
L13982 15678
" />
<path d="M14320 16100
L14601 16100
" />
<path d="M14263 16269
L14460 15678
L14657 16269
" />
<path d="M15304 16269
L15304 15678
" />
<path d="M15585 16269
L15585 15678
L15922 16269
L15922 15678
" />
<path d="M6312 2606
L6256 2578
L6171 2578
L6087 2606
L6031 2662
L6002 2719
L5974 2831
L5974 2916
L6002 3028
L6031 3084
L6087 3141
L6171 3169
L6227 3169
L6312 3141
L6340 3112
L6340 2916
L6227 2916
" />
<path d="M6593 3169
L6593 2578
L6930 3169
L6930 2578
" />
<path d="M7212 3169
L7212 2578
L7352 2578
L7437 2606
L7493 2662
L7521 2719
L7549 2831
L7549 2916
L7521 3028
L7493 3084
L7437 3141
L7352 3169
L7212 3169
" />
<path d="M14134 4278
L13852 4278
L13824 4559
L13852 4531
L13909 4503
L14049 4503
L14106 4531
L14134 4559
L14162 4616
L14162 4756
L14134 4812
L14106 4841
L14049 4869
L13909 4869
L13852 4841
L13824 4812
" />
<path d="M14331 4278
L14527 4869
L14724 4278
" />
<path d="M15371 4869
L15371 4278
L15512 4278
L15596 4306
L15652 4362
L15680 4419
L15708 4531
L15708 4616
L15680 4728
L15652 4784
L15596 4841
L15512 4869
L15371 4869
" />
<path d="M16299 4812
L16271 4841
L16187 4869
L16130 4869
L16046 4841
L15990 4784
L15962 4728
L15933 4616
L15933 4531
L15962 4419
L15990 4362
L16046 4306
L16130 4278
L16187 4278
L16271 4306
L16299 4334
" />
<path d="M28434 278
L28434 756
L28462 812
L28490 841
L28546 869
L28659 869
L28715 841
L28743 812
L28771 756
L28771 278
" />
<path d="M29024 334
L29052 306
L29109 278
L29249 278
L29306 306
L29334 334
L29362 391
L29362 447
L29334 531
L28996 869
L29362 869
" />
<path d="M30826 9775
L30826 10169
" />
<path d="M30826 9831
L30854 9803
L30911 9775
L30995 9775
L31051 9803
L31079 9859
L31079 10169
" />
<path d="M31586 10141
L31529 10169
L31417 10169
L31361 10141
L31332 10084
L31332 9859
L31361 9803
L31417 9775
L31529 9775
L31586 9803
L31614 9859
L31614 9916
L31332 9972
" />
<path d="M31951 10169
L31895 10141
L31867 10112
L31839 10056
L31839 9887
L31867 9831
L31895 9803
L31951 9775
L32035 9775
L32092 9803
L32120 9831
L32148 9887
L32148 10056
L32120 10112
L32092 10141
L32035 10169
L31951 10169
" />
<path d="M32401 9775
L32401 10365
" />
<path d="M32401 9803
L32457 9775
L32570 9775
L32626 9803
L32654 9831
L32682 9887
L32682 10056
L32654 10112
L32626 10141
L32570 10169
L32457 10169
L32401 10141
" />
<path d="M32935 10169
L32935 9775
" />
<path d="M32935 9578
L32907 9606
L32935 9634
L32964 9606
L32935 9578
L32935 9634
" />
<path d="M33160 10169
L33470 9775
" />
<path d="M33160 9775
L33470 10169
" />
<path d="M33920 10141
L33863 10169
L33751 10169
L33695 10141
L33667 10084
L33667 9859
L33695 9803
L33751 9775
L33863 9775
L33920 9803
L33948 9859
L33948 9916
L33667 9972
" />
<path d="M34285 10169
L34229 10141
L34201 10084
L34201 9578
" />
<path d="M34820 10169
L34482 10169
" />
<path d="M34651 10169
L34651 9578
L34595 9662
L34538 9719
L34482 9747
" />
<path d="M35326 9578
L35213 9578
L35157 9606
L35129 9634
L35073 9719
L35044 9831
L35044 10056
L35073 10112
L35101 10141
L35157 10169
L35269 10169
L35326 10141
L35354 10112
L35382 10056
L35382 9916
L35354 9859
L35326 9831
L35269 9803
L35157 9803
L35101 9831
L35073 9859
L35044 9916
" />
<path d="M29829 17269
L29829 16678
L29970 16678
L30054 16706
L30111 16762
L30139 16819
L30167 16931
L30167 17016
L30139 17128
L30111 17184
L30054 17241
L29970 17269
L29829 17269
" />
<path d="M30392 17100
L30673 17100
" />
<path d="M30335 17269
L30532 16678
L30729 17269
" />
<path d="M30842 16678
L31179 16678
" />
<path d="M31010 17269
L31010 16678
" />
<path d="M31348 17100
L31629 17100
" />
<path d="M31292 17269
L31488 16678
L31685 17269
" />
<path d="M32445 16678
L32557 16678
L32613 16706
L32670 16762
L32698 16875
L32698 17072
L32670 17184
L32613 17241
L32557 17269
L32445 17269
L32388 17241
L32332 17184
L32304 17072
L32304 16875
L32332 16762
L32388 16706
L32445 16678
" />
<path d="M32951 16678
L32951 17156
L32979 17212
L33007 17241
L33063 17269
L33176 17269
L33232 17241
L33260 17212
L33288 17156
L33288 16678
" />
<path d="M33485 16678
L33823 16678
" />
<path d="M33654 17269
L33654 16678
" />
<path d="M36423 16269
L36423 15678
L36564 15678
L36648 15706
L36704 15762
L36732 15819
L36760 15931
L36760 16016
L36732 16128
L36704 16184
L36648 16241
L36564 16269
L36423 16269
" />
<path d="M36985 16100
L37267 16100
" />
<path d="M36929 16269
L37126 15678
L37323 16269
" />
<path d="M37435 15678
L37773 15678
" />
<path d="M37604 16269
L37604 15678
" />
<path d="M37942 16100
L38223 16100
" />
<path d="M37885 16269
L38082 15678
L38279 16269
" />
<path d="M38926 16269
L38926 15678
" />
<path d="M39207 16269
L39207 15678
L39544 16269
L39544 15678
" />
<path d="M29934 2606
L29878 2578
L29793 2578
L29709 2606
L29653 2662
L29624 2719
L29596 2831
L29596 2916
L29624 3028
L29653 3084
L29709 3141
L29793 3169
L29849 3169
L29934 3141
L29962 3112
L29962 2916
L29849 2916
" />
<path d="M30215 3169
L30215 2578
L30552 3169
L30552 2578
" />
<path d="M30834 3169
L30834 2578
L30974 2578
L31059 2606
L31115 2662
L31143 2719
L31171 2831
L31171 2916
L31143 3028
L31115 3084
L31059 3141
L30974 3169
L30834 3169
" />
<path d="M37756 4278
L37475 4278
L37446 4559
L37475 4531
L37531 4503
L37671 4503
L37728 4531
L37756 4559
L37784 4616
L37784 4756
L37756 4812
L37728 4841
L37671 4869
L37531 4869
L37475 4841
L37446 4812
" />
<path d="M37953 4278
L38149 4869
L38346 4278
" />
<path d="M38993 4869
L38993 4278
L39134 4278
L39218 4306
L39274 4362
L39302 4419
L39331 4531
L39331 4616
L39302 4728
L39274 4784
L39218 4841
L39134 4869
L38993 4869
" />
<path d="M39921 4812
L39893 4841
L39809 4869
L39752 4869
L39668 4841
L39612 4784
L39584 4728
L39556 4616
L39556 4531
L39584 4419
L39612 4362
L39668 4306
L39752 4278
L39809 4278
L39893 4306
L39921 4334
" />
<path d="M21738 12507
L21738 12320
" />
<path d="M21851 12545
L21457 12414
L21851 12282
" />
<path d="M21457 12207
L21457 11982
" />
<path d="M21851 12095
L21457 12095
" />
<path d="M21851 11851
L21457 11851
L21738 11720
L21457 11589
L21851 11589
" />
<path d="M21645 11401
L21645 11270
" />
<path d="M21851 11214
L21851 11401
L21457 11401
L21457 11214
" />
<path d="M21476 10839
L21457 10876
L21457 10933
L21476 10989
L21513 11026
L21551 11045
L21626 11064
L21682 11064
L21757 11045
L21795 11026
L21832 10989
L21851 10933
L21851 10895
L21832 10839
L21813 10820
L21682 10820
L21682 10895
" />
<path d="M21738 10670
L21738 10483
" />
<path d="M21851 10708
L21457 10576
L21851 10445
" />
<path d="M21457 10351
L21457 10108
L21607 10239
L21607 10183
L21626 10145
L21645 10126
L21682 10108
L21776 10108
L21813 10126
L21832 10145
L21851 10183
L21851 10295
L21832 10333
L21813 10351
" />
<path d="M21495 9958
L21476 9939
L21457 9901
L21457 9808
L21476 9770
L21495 9751
L21532 9733
L21570 9733
L21626 9751
L21851 9976
L21851 9733
" />
<path d="M21626 9508
L21607 9545
L21588 9564
L21551 9583
L21532 9583
L21495 9564
L21476 9545
L21457 9508
L21457 9433
L21476 9395
L21495 9377
L21532 9358
L21551 9358
L21588 9377
L21607 9395
L21626 9433
L21626 9508
L21645 9545
L21663 9564
L21701 9583
L21776 9583
L21813 9564
L21832 9545
L21851 9508
L21851 9433
L21832 9395
L21813 9377
L21776 9358
L21701 9358
L21663 9377
L21645 9395
L21626 9433
" />
<path d="M21851 9189
L21457 9189
L21457 9039
L21476 9002
L21495 8983
L21532 8964
L21588 8964
L21626 8983
L21645 9002
L21663 9039
L21663 9189
" />
<path d="M21701 8795
L21701 8495
" />
<path d="M21851 8308
L21457 8308
L21457 8158
L21476 8120
L21495 8102
L21532 8083
L21588 8083
L21626 8102
L21645 8120
L21663 8158
L21663 8308
" />
</g>
<g style="fill:#000000; fill-opacity:0.0; 
stroke:#000000; stroke-width:39.3701; stroke-opacity:1; 
stroke-linecap:round; stroke-linejoin:round;">
<path d="M19 19744
L19 59
" />
<path d="M43326 19744
L19 19744
" />
<path d="M43326 59
L43326 19744
" />
<path d="M19 59
L43326 59
" />
</g> 
</svg>
